<?xml version="1.0" encoding="UTF-8"?>
<svg xmlns="http://www.w3.org/2000/svg" width="500" height="300" viewBox="0 0 500 300" fill="none">
  <path d="M157.497 118.914H157.502V182.47H140.937L139.517 176.989H139.045C136.985 179.061 134.582 180.755 131.944 181.995C129.266 183.267 126.659 183.901 124.138 183.901C119.248 183.901 114.988 182.634 111.356 180.09C107.735 177.546 104.928 173.931 102.959 169.242C100.986 164.562 100 159.042 100 152.686C100 146.408 101.144 140.907 103.431 136.174C105.719 131.451 108.716 127.818 112.424 125.278C116.132 122.734 120.035 121.462 124.138 121.462C127.135 121.462 129.68 121.957 131.768 122.95C133.744 123.919 135.56 125.192 137.148 126.723V110.47C137.801 103.088 144.582 99.3968 157.497 99.3968V118.914ZM137.148 158.922V140.994C135.018 139.093 132.335 138.142 129.108 138.142C126.74 138.142 124.772 139.294 123.19 141.598C121.617 143.902 120.826 147.517 120.826 152.442C120.826 157.606 121.574 161.36 123.07 163.702C124.572 166.045 126.74 167.221 129.58 167.221C131.234 167.221 132.654 166.899 133.841 166.261C135.023 165.632 136.128 164.518 137.153 162.93V158.922H137.148V158.922ZM159.637 203.197H159.647C168.911 199.515 173.481 191.893 173.357 180.325V180.085L173.596 122.888H193.945L193.706 179.374C193.706 186.92 191.934 193.054 188.383 197.787C184.833 202.515 178.957 204.877 170.75 204.877C166.337 204.877 162.63 204.32 159.632 203.211V203.197H159.637V203.197ZM403.608 182.413C390.694 182.413 383.912 178.717 383.259 171.334V122.888H403.608V182.413V182.413ZM183.799 115.496C180.644 115.496 178.037 114.536 175.983 112.63C173.934 110.725 172.909 108.262 172.909 105.243C172.909 102.224 173.939 99.7616 175.988 97.8512C178.037 95.96 180.644 95 183.799 95C186.954 95 189.556 95.9552 191.605 97.8608C193.654 99.7664 194.683 102.229 194.683 105.253C194.683 108.267 193.659 110.73 191.605 112.635C189.556 114.546 186.954 115.496 183.799 115.496V115.496ZM207.908 122.883H228.257V182.466H207.908V122.883ZM218.083 115.491C214.928 115.491 212.326 114.541 210.272 112.63C208.223 110.725 207.198 108.262 207.198 105.243C207.198 102.224 208.223 99.7616 210.272 97.8512C212.326 95.96 214.928 95 218.083 95C221.237 95 223.84 95.9552 225.894 97.8608C227.943 99.7664 228.967 102.229 228.967 105.253C228.967 108.267 227.943 110.73 225.894 112.635C223.844 114.546 221.237 115.496 218.078 115.496L218.083 115.491ZM243.164 122.883H259.729L261.15 130.035H261.626C264.197 127.549 267.104 125.442 270.261 123.776C273.259 122.226 276.609 121.453 280.317 121.453C286.627 121.453 291.278 123.574 294.28 127.827C297.278 132.08 298.774 138.056 298.774 145.765V182.466H278.425V148.386C278.425 144.728 277.972 142.227 277.067 140.878C276.161 139.525 274.636 138.853 272.511 138.853C270.776 138.853 269.275 139.189 268.012 139.861C266.749 140.538 265.248 141.709 263.518 143.379V182.466H243.169V122.888L243.164 122.883ZM313.209 122.883H329.775L331.195 130.035H331.671C334.242 127.549 337.15 125.442 340.307 123.776C343.304 122.226 346.654 121.453 350.362 121.453C356.672 121.453 361.323 123.574 364.325 127.827C367.323 132.08 368.819 138.056 368.819 145.765V182.466H348.47V148.386C348.47 144.728 348.017 142.227 347.107 140.878C346.202 139.525 344.681 138.853 342.556 138.853C340.817 138.853 339.315 139.189 338.057 139.861C336.794 140.538 335.293 141.709 333.563 143.379V182.466H313.214V122.888L313.209 122.883ZM393.429 115.491C390.274 115.491 387.672 114.541 385.623 112.63C383.574 110.725 382.544 108.262 382.544 105.243C382.544 102.224 383.569 99.7616 385.623 97.8512C387.672 95.96 390.274 95 393.429 95C396.589 95 399.191 95.9552 401.24 97.8608C403.289 99.7664 404.318 102.229 404.318 105.253C404.318 108.267 403.289 110.73 401.24 112.635C399.191 114.546 396.589 115.496 393.429 115.496V115.491V115.491Z" fill="#0366D6"></path>
</svg>
